<svg width="182" height="30" viewBox="0 0 182 30" fill="none" xmlns="http://www.w3.org/2000/svg">
<g id="Group 171">
<path id="Vector" d="M15 0C10.9294 0 10.4175 0.01875 8.81812 0.09C7.21875 0.165 6.12937 0.41625 5.175 0.7875C4.17393 1.16404 3.26717 1.75467 2.51813 2.51813C1.75514 3.26756 1.16458 4.1742 0.7875 5.175C0.41625 6.1275 0.163125 7.21875 0.09 8.8125C0.01875 10.4156 0 10.9256 0 15.0019C0 19.0744 0.01875 19.5844 0.09 21.1838C0.165 22.7812 0.41625 23.8706 0.7875 24.825C1.17188 25.8112 1.68375 26.6475 2.51813 27.4819C3.35063 28.3162 4.18687 28.83 5.17313 29.2125C6.12937 29.5837 7.21688 29.8369 8.81437 29.91C10.4156 29.9812 10.9256 30 15 30C19.0744 30 19.5825 29.9812 21.1838 29.91C22.7794 29.835 23.8725 29.5837 24.8269 29.2125C25.8273 28.8358 26.7334 28.2451 27.4819 27.4819C28.3162 26.6475 28.8281 25.8112 29.2125 24.825C29.5819 23.8706 29.835 22.7812 29.91 21.1838C29.9812 19.5844 30 19.0744 30 15C30 10.9256 29.9812 10.4156 29.91 8.81437C29.835 7.21875 29.5819 6.1275 29.2125 5.175C28.8355 4.17417 28.2449 3.26752 27.4819 2.51813C26.7331 1.75439 25.8262 1.16371 24.825 0.7875C23.8687 0.41625 22.7775 0.163125 21.1819 0.09C19.5806 0.01875 19.0725 0 14.9963 0H15.0019H15ZM13.6556 2.70375H15.0019C19.0069 2.70375 19.4812 2.71688 21.0619 2.79C22.5244 2.85563 23.3194 3.10125 23.8481 3.30562C24.5475 3.5775 25.0481 3.90375 25.5731 4.42875C26.0981 4.95375 26.4225 5.4525 26.6944 6.15375C26.9006 6.68062 27.1444 7.47563 27.21 8.93813C27.2831 10.5188 27.2981 10.9931 27.2981 14.9963C27.2981 18.9994 27.2831 19.4756 27.21 21.0562C27.1444 22.5187 26.8988 23.3119 26.6944 23.8406C26.4539 24.4919 26.07 25.0808 25.5712 25.5637C25.0462 26.0887 24.5475 26.4131 23.8463 26.685C23.3213 26.8913 22.5262 27.135 21.0619 27.2025C19.4812 27.2738 19.0069 27.2906 15.0019 27.2906C10.9969 27.2906 10.5206 27.2738 8.94 27.2025C7.4775 27.135 6.68437 26.8913 6.15562 26.685C5.50406 26.4449 4.91461 26.0617 4.43062 25.5637C3.93141 25.0801 3.54698 24.4906 3.30562 23.8387C3.10125 23.3119 2.85563 22.5169 2.79 21.0544C2.71875 19.4738 2.70375 18.9994 2.70375 14.9925C2.70375 10.9875 2.71875 10.515 2.79 8.93437C2.8575 7.47187 3.10125 6.67688 3.3075 6.14813C3.57938 5.44875 3.90562 4.94812 4.43062 4.42312C4.95563 3.89812 5.45437 3.57375 6.15562 3.30188C6.68437 3.09563 7.4775 2.85188 8.94 2.78437C10.3238 2.72062 10.86 2.70188 13.6556 2.7V2.70375ZM23.0081 5.19375C22.7717 5.19375 22.5377 5.24031 22.3193 5.33077C22.1009 5.42123 21.9025 5.55381 21.7353 5.72096C21.5682 5.8881 21.4356 6.08653 21.3451 6.30492C21.2547 6.52331 21.2081 6.75737 21.2081 6.99375C21.2081 7.23013 21.2547 7.46419 21.3451 7.68258C21.4356 7.90097 21.5682 8.0994 21.7353 8.26654C21.9025 8.43369 22.1009 8.56627 22.3193 8.65673C22.5377 8.74719 22.7717 8.79375 23.0081 8.79375C23.4855 8.79375 23.9434 8.60411 24.2809 8.26654C24.6185 7.92898 24.8081 7.47114 24.8081 6.99375C24.8081 6.51636 24.6185 6.05852 24.2809 5.72096C23.9434 5.38339 23.4855 5.19375 23.0081 5.19375ZM15.0019 7.2975C13.9801 7.28156 12.9654 7.46904 12.0168 7.84901C11.0682 8.22899 10.2047 8.79388 9.47653 9.51079C8.74835 10.2277 8.17006 11.0823 7.77533 12.0249C7.3806 12.9674 7.17731 13.9791 7.17731 15.0009C7.17731 16.0228 7.3806 17.0345 7.77533 17.977C8.17006 18.9196 8.74835 19.7742 9.47653 20.4911C10.2047 21.208 11.0682 21.7729 12.0168 22.1529C12.9654 22.5328 13.9801 22.7203 15.0019 22.7044C17.0241 22.6728 18.9529 21.8473 20.3718 20.4061C21.7908 18.9649 22.5861 17.0234 22.5861 15.0009C22.5861 12.9784 21.7908 11.037 20.3718 9.59578C18.9529 8.15454 17.0241 7.32905 15.0019 7.2975ZM15.0019 9.99938C16.3281 9.99938 17.6001 10.5262 18.5379 11.464C19.4757 12.4018 20.0025 13.6738 20.0025 15C20.0025 16.3262 19.4757 17.5982 18.5379 18.536C17.6001 19.4738 16.3281 20.0006 15.0019 20.0006C13.6756 20.0006 12.4037 19.4738 11.4659 18.536C10.5281 17.5982 10.0013 16.3262 10.0013 15C10.0013 13.6738 10.5281 12.4018 11.4659 11.464C12.4037 10.5262 13.6756 9.99938 15.0019 9.99938Z" fill="white"/>
<path id="Vector_2" d="M69.4535 13.4674C69.3275 13.4075 69.2003 13.3502 69.0721 13.2955C68.8481 9.16191 66.59 6.79606 62.7979 6.77184H62.747C60.478 6.77184 58.5928 7.74046 57.4317 9.50213L59.5167 10.9321C60.3836 9.61594 61.7445 9.33505 62.7482 9.33505H62.7821C64.0304 9.34352 64.9736 9.70675 65.5826 10.4151C66.027 10.9296 66.3236 11.6428 66.4701 12.5412C65.2858 12.3489 64.0836 12.2908 62.8862 12.368C59.2818 12.5763 56.9631 14.6782 57.1193 17.5998C57.198 19.0818 57.9366 20.3567 59.1982 21.1897C60.2637 21.8944 61.6379 22.2382 63.0666 22.1607C64.9518 22.0566 66.4302 21.3374 67.4617 20.0225C68.2463 19.0236 68.7415 17.7293 68.9607 16.0984C69.8591 16.6408 70.525 17.354 70.8931 18.2112C71.519 19.6702 71.5554 22.0663 69.6 24.0193C67.8867 25.7313 65.8272 26.4711 62.7155 26.4941C59.2636 26.4699 56.652 25.362 54.9545 23.2044C53.3647 21.1824 52.5438 18.2645 52.5136 14.5293C52.5438 10.794 53.3647 7.87486 54.9545 5.85408C56.652 3.69648 59.2624 2.58984 62.7155 2.56441C66.1916 2.58863 68.8481 3.70254 70.611 5.86982C71.4754 6.93409 72.1268 8.27078 72.5567 9.82904L75 9.17765C74.4794 7.25857 73.6597 5.60587 72.5458 4.23407C70.2853 1.45293 66.9799 0.0290585 62.724 0H62.707C58.456 0.0290585 55.1906 1.45898 52.9954 4.24981C51.0413 6.73189 50.0339 10.1886 50 14.5196V14.5389C50.0339 18.8711 51.0413 22.3254 52.9942 24.8087C55.1894 27.5995 58.4572 29.0294 62.707 29.0585H62.724C66.5016 29.0319 69.1641 28.0427 71.3568 25.8512C74.2275 22.9841 74.1416 19.3905 73.1947 17.1845C72.5167 15.602 71.2224 14.3174 69.4535 13.4674ZM62.931 19.6C61.351 19.6896 59.7104 18.98 59.6281 17.4617C59.5675 16.3357 60.4296 15.0777 63.0279 14.9288C63.3257 14.9106 63.6175 14.9034 63.9045 14.9034C64.8489 14.9034 65.7303 14.9942 66.5331 15.1698C66.234 18.9086 64.4784 19.5152 62.931 19.6Z" fill="white"/>
<path id="Vector_3" d="M125 5.89558C123.877 6.39244 122.686 6.71884 121.466 6.86399C122.751 6.09447 123.713 4.88411 124.171 3.45837C122.965 4.17658 121.641 4.67992 120.264 4.95219C119.338 3.96109 118.11 3.30379 116.771 3.08247C115.433 2.86115 114.059 3.08822 112.863 3.72837C111.667 4.36852 110.716 5.38589 110.158 6.62232C109.599 7.85874 109.465 9.24494 109.776 10.5654C107.329 10.443 104.934 9.80707 102.748 8.69905C100.562 7.59102 98.6341 6.03564 97.0884 4.1339C96.5413 5.07354 96.2539 6.14169 96.2554 7.22898C96.2554 9.363 97.343 11.2483 98.9928 12.3521C98.0156 12.3213 97.0599 12.0574 96.2054 11.5824V11.6575C96.2053 13.079 96.697 14.4567 97.5969 15.5571C98.4969 16.6574 99.7498 17.4126 101.143 17.6945C100.236 17.9406 99.2847 17.9769 98.3615 17.8005C98.7543 19.0241 99.52 20.0942 100.551 20.8608C101.583 21.6275 102.828 22.0524 104.113 22.0759C102.836 23.0788 101.374 23.8202 99.8103 24.2576C98.2466 24.695 96.612 24.8198 95 24.625C97.8136 26.4343 101.089 27.3949 104.434 27.3918C115.757 27.3918 121.948 18.0124 121.948 9.87812C121.948 9.6132 121.942 9.34534 121.93 9.0819C123.134 8.21116 124.174 7.1312 125 5.89558Z" fill="white"/>
<path id="Vector_4" d="M155.975 21.1817L167.231 15.4272L155.975 9.67267V21.1817ZM181.046 6.16243C181.328 7.06396 181.523 8.27241 181.653 9.80694C181.805 11.3415 181.87 12.665 181.87 13.8159L182 15.4272C182 19.628 181.653 22.7162 181.046 24.6919C180.504 26.4183 179.246 27.5308 177.294 28.0104C176.275 28.2597 174.41 28.4324 171.547 28.5474C168.727 28.6817 166.147 28.7393 163.761 28.7393L160.313 28.8544C151.226 28.8544 145.565 28.5474 143.332 28.0104C141.38 27.5308 140.122 26.4183 139.58 24.6919C139.298 23.7904 139.103 22.5819 138.972 21.0474C138.821 19.5129 138.756 18.1893 138.756 17.0384L138.625 15.4272C138.625 11.2264 138.972 8.13814 139.58 6.16243C140.122 4.43607 141.38 3.32354 143.332 2.84399C144.351 2.59463 146.216 2.422 149.079 2.30691C151.898 2.17263 154.479 2.11509 156.865 2.11509L160.313 2C169.4 2 175.06 2.30691 177.294 2.84399C179.246 3.32354 180.504 4.43607 181.046 6.16243Z" fill="white"/>
</g>
</svg>
